PathFileType	4	(X/Y/Z)	E:\Qualisys_Data\Carbon_Farble_Plate\Data\Amateur_Runner\S14\T1\S14T1V21_c3d.trc
DataRate	CameraRate	NumFrames	NumMarkers	Units	OrigDataRate	OrigDataStartFrame	OrigNumFrames
200.000000	200.000000	4	39	mm	200.000000	38	306
Frame#	Time	LSHO			RSHO			LICST			RICST			LASIS			LHEEL			RASIS			LTROC			RTROC			SACR			LTH1			LSK4			LTH2			LTH3			RHM5			LSK2			LTH4			RTH1			LTOE			RTH2			RTH3			RTH4			LLEP			RLEP			LSK1			LSK3			RSK1			LHM5			RSK2			LFT1			RSK3			RSK4			LLME			RLME			RTOE			RHEEL			RFT1			RFT2			LFT2			
		X1	Y1	Z1	X2	Y2	Z2	X3	Y3	Z3	X4	Y4	Z4	X5	Y5	Z5	X6	Y6	Z6	X7	Y7	Z7	X8	Y8	Z8	X9	Y9	Z9	X10	Y10	Z10	X11	Y11	Z11	X12	Y12	Z12	X13	Y13	Z13	X14	Y14	Z14	X15	Y15	Z15	X16	Y16	Z16	X17	Y17	Z17	X18	Y18	Z18	X19	Y19	Z19	X20	Y20	Z20	X21	Y21	Z21	X22	Y22	Z22	X23	Y23	Z23	X24	Y24	Z24	X25	Y25	Z25	X26	Y26	Z26	X27	Y27	Z27	X28	Y28	Z28	X29	Y29	Z29	X30	Y30	Z30	X31	Y31	Z31	X32	Y32	Z32	X33	Y33	Z33	X34	Y34	Z34	X35	Y35	Z35	X36	Y36	Z36	X37	Y37	Z37	X38	Y38	Z38	X39	Y39	Z39	

39	0.19	-2139.630615234375	1416.227294921875	-474.7437744140625	-2063.146728515625	1403.947509765625	-180.882568359375	-2168.965087890625	964.0104370117188	-458.3793029785156	-2127.709228515625	965.1032104492188	-180.5251159667969	-2124.95263671875	916.8435668945312	-437.2313232421875	-2398.910400390625	492.6795349121094	-350.7999267578125	-2103.732666015625	927.2210083007812	-203.7729797363281	-2261.492431640625	833.5823364257812	-462.4195861816406	-2246.45654296875	875.6649780273438	-149.596435546875	-2285.938720703125	971.913330078125	-312.8432006835938	-2065.5029296875	669.0986938476562	-493.2695922851562	-2201.689208984375	520.5234375	-440.1832885742188	-2126.13525390625	628.2227783203125	-463.0527648925781	-2000.375122070312	592.5697631835938	-479.876708984375	-2264.755859375	78.97643280029297	-209.9275207519531	-2110.827392578125	542.7049560546875	-468.6860046386719	-2062.931884765625	552.2604370117188	-450.3255004882812	-2102.752685546875	634.153076171875	-160.7971496582031	-2343.194580078125	240.6931304931641	-387.9853820800781	-2181.525390625	635.1614990234375	-153.9515686035156	-2099.9150390625	539.4027099609375	-196.4225158691406	-2182.245361328125	535.7567138671875	-179.5945281982422	-2003.84423828125	520.749267578125	-475.5517883300781	-2158.4833984375	464.5311279296875	-193.4873046875	-2087.365234375	461.6177673339844	-460.9188842773438	-2184.49951171875	440.7991638183594	-438.4247741699219	-2185.7392578125	341.1022033691406	-199.2169494628906	-2377.2734375	305.3827209472656	-443.9169311523438	-2260.96923828125	380.4598083496094	-184.5017395019531	-2417.5009765625	472.8011779785156	-323.3111572265625	-2244.343994140625	256.5310974121094	-218.6261749267578	-2308.910400390625	298.9441223144531	-201.2683868408203	-2356.376953125	446.1748657226562	-413.108154296875	-2377.66162109375	140.2905578613281	-230.4811706542969	-2196.164794921875	72.4764633178711	-278.4833984375	-2447.707275390625	123.2437515258789	-282.8114318847656	-2439.65625	90.39736938476562	-311.2382507324219	-2445.16552734375	101.1690673828125	-254.2127380371094	-2423.60791015625	485.2043151855469	-377.7767028808594
40	0.195	-2121.14208984375	1419.478393554688	-474.4507446289062	-2041.693115234375	1407.855712890625	-182.3745269775391	-2152.66162109375	967.7373657226562	-458.8446655273438	-2106.183837890625	969.0411376953124	-182.0471649169922	-2104.069580078125	920.0631713867188	-437.4079284667969	-2368.1533203125	481.0633850097656	-350.3424072265625	-2081.94677734375	929.7705078125	-204.1090850830078	-2240.653076171875	837.1680297851562	-462.6381530761719	-2227.628173828125	878.9228515625	-149.5127716064453	-2265.383056640625	975.3251953125	-312.2222595214844	-2041.42919921875	675.417724609375	-492.22802734375	-2172.91064453125	518.4786376953125	-439.506591796875	-2100.734130859375	632.8973388671875	-461.3495788574219	-1974.844604492188	600.6632690429688	-478.7315368652344	-2264.449462890625	79.23126983642578	-210.1669464111328	-2080.184814453125	544.2490234375	-463.6920776367188	-2036.711303710938	558.41748046875	-449.2801513671875	-2088.884765625	634.7844848632812	-160.6452484130859	-2298.3974609375	234.7842407226562	-385.5590209960938	-2166.81103515625	637.8417358398438	-153.7696533203125	-2090.334716796875	539.03857421875	-197.2499694824219	-2171.60693359375	538.07080078125	-178.4535064697266	-1976.671875	529.7191772460938	-474.5450439453125	-2152.31884765625	465.2261962890625	-193.744140625	-2056.474365234375	465.2757568359375	-459.8407592773438	-2153.263671875	440.6446228027344	-438.0260314941406	-2181.536865234375	342.6809692382812	-198.982666015625	-2339.566162109375	295.6123657226562	-444.2933959960938	-2256.28662109375	383.5960083007812	-184.8988037109375	-2390.359130859375	462.5997314453125	-326.1979370117188	-2241.3056640625	259.0470275878906	-217.9854431152344	-2305.0400390625	302.4397888183594	-201.6283874511719	-2325.153076171875	436.7202453613281	-412.7752075195312	-2376.852783203125	144.5653991699219	-230.5784606933594	-2196.22216796875	72.62342071533203	-278.712646484375	-2445.478271484375	127.4765319824219	-283.1336975097656	-2438.15380859375	94.87452697753906	-311.6594543457031	-2444.16455078125	105.5151824951172	-254.7645111083984	-2393.27880859375	472.2629089355469	-377.7640380859375
41	0.2	-2103.16162109375	1422.800903320312	-474.4452514648438	-2020.350219726562	1411.552490234375	-183.787353515625	-2134.795166015625	971.17041015625	-459.1141967773438	-2085.18359375	971.7265014648438	-182.2120819091797	-2085.616455078125	923.7293090820312	-436.771484375	-2338.0810546875	468.2326049804688	-349.223876953125	-2061.41357421875	931.7477416992188	-203.1617126464844	-2220.059814453125	841.10400390625	-463.4737548828125	-2206.775146484375	881.69970703125	-149.4085235595703	-2244.937255859375	978.4564208984376	-311.5883483886719	-2017.519287109375	682.0504760742188	-491.0	-2145.417724609375	517.0165405273438	-439.4031677246094	-2075.62255859375	637.67529296875	-460.1615295410156	-1950.016723632812	608.6183471679688	-477.3887939453125	-2263.860595703125	79.84954071044922	-210.4357757568359	-2053.518310546875	546.9212036132812	-462.5859985351562	-2011.233032226562	563.887939453125	-448.9845886230469	-2075.95166015625	635.0382080078125	-161.576904296875	-2258.4150390625	226.4638061523438	-385.8706359863281	-2153.761962890625	640.2786865234375	-153.9544372558594	-2080.62255859375	538.958984375	-197.4638824462891	-2162.734619140625	541.0242309570312	-178.1798858642578	-1949.877197265625	538.0700073242188	-472.5523986816406	-2145.507080078125	467.572509765625	-193.5709533691406	-2025.7109375	469.196044921875	-457.6829223632812	-2122.634033203125	439.7852172851562	-437.2883911132812	-2176.268798828125	345.5419311523438	-198.4195556640625	-2300.383544921875	285.9868469238281	-444.0311279296875	-2250.019775390625	387.3572082519531	-184.123779296875	-2357.111328125	447.9059448242188	-322.8504028320312	-2237.91650390625	262.3892211914062	-217.6187591552734	-2300.641845703125	307.1058349609375	-201.2020263671875	-2294.52880859375	428.2152099609375	-413.377197265625	-2375.28759765625	149.1418151855469	-229.73876953125	-2196.874267578125	71.66007232666016	-279.7079772949219	-2443.462646484375	134.2028198242188	-282.5941772460938	-2436.6220703125	101.7447509765625	-311.4173889160156	-2441.877685546875	112.0006256103516	-254.4175109863281	-2363.9384765625	459.4696960449219	-378.6390075683594
42	0.205	-2086.014404296875	1426.702026367188	-475.2048645019531	-1998.810668945312	1415.320556640625	-185.5281524658203	-2114.97119140625	974.589111328125	-458.1943664550781	-2063.423583984375	975.0675048828124	-182.6735992431641	-2065.07470703125	927.1465454101562	-436.6977233886719	-2310.970947265625	458.6234741210938	-350.0384826660156	-2038.896484375	934.7383422851562	-203.6937713623047	-2198.756103515625	845.8623046875	-464.4119262695312	-2186.284423828125	884.7788696289062	-150.142333984375	-2224.177001953125	981.5658569335938	-310.7085571289062	-1993.872680664062	687.8677978515625	-490.4808044433594	-2118.552490234375	514.592529296875	-439.1386413574219	-2051.23193359375	643.2399291992188	-459.8661193847656	-1924.742065429688	615.9039916992188	-476.1557312011719	-2263.325439453125	80.17864227294922	-210.5220336914062	-2027.929321289062	548.713623046875	-461.6207580566406	-1985.962768554688	570.3226928710938	-447.7647094726562	-2062.943115234375	635.7496337890625	-161.3484344482422	-2217.623779296875	218.0801544189453	-385.9296569824219	-2139.734619140625	644.2034912109375	-153.6732025146484	-2070.537841796875	540.4623413085938	-197.6332855224609	-2152.98974609375	544.6400756835938	-178.1115875244141	-1923.7841796875	546.2081909179688	-470.5353393554688	-2138.272705078125	469.6790466308594	-193.0589141845703	-1994.306762695312	470.5245056152344	-454.7247314453125	-2090.855712890625	439.3775024414062	-436.791015625	-2170.95166015625	348.7704772949219	-197.9218292236328	-2260.5126953125	276.2255554199219	-443.6868286132812	-2244.237060546875	391.8929748535156	-184.1974029541016	-2328.044921875	435.1875	-322.4013061523438	-2232.829833984375	266.2322082519531	-216.6696929931641	-2296.475830078125	312.1849670410156	-200.9886322021484	-2262.06396484375	417.8331909179688	-412.3088989257812	-2372.205810546875	154.7940979003906	-229.7453460693359	-2195.95849609375	72.55337524414062	-278.6565246582031	-2439.78173828125	141.5250244140625	-281.4959106445312	-2433.9453125	108.7554168701172	-310.3966064453125	-2438.65771484375	118.7052993774414	-253.4864959716797	-2335.086181640625	446.074462890625	-378.84765625
